<?xml version="1.0" encoding="UTF-8"?>
<!DOCTYPE svg PUBLIC "-//W3C//DTD SVG 1.1//EN" "http://www.w3.org/Graphics/SVG/1.1/DTD/svg11.dtd">
<!-- Creator: CorelDRAW -->
<svg xmlns="http://www.w3.org/2000/svg" xml:space="preserve" width="2048px" height="2048px" style="shape-rendering:geometricPrecision; text-rendering:geometricPrecision; image-rendering:optimizeQuality; fill-rule:evenodd; clip-rule:evenodd"
viewBox="0 0 2048 2048"
 xmlns:xlink="http://www.w3.org/1999/xlink">
 <defs>
  <style type="text/css">
   <![CDATA[
    .fil2 {fill:none}
    .fil1 {fill:#546E7A}
    .fil0 {fill:#90A4AE}
    .fil5 {fill:#F57F17}
    .fil3 {fill:#FBC02D}
    .fil4 {fill:#F57F17;fill-rule:nonzero}
    .fil6 {fill:#FFFFFE;fill-rule:nonzero}
   ]]>
  </style>
   <clipPath id="id0">
    <path d="M1024 0c565.539,0 1024,458.461 1024,1024 0,565.539 -458.461,1024 -1024,1024 -565.539,0 -1024,-458.461 -1024,-1024 0,-565.539 458.461,-1024 1024,-1024z"/>
   </clipPath>
 </defs>
 <g id="Layer_x0020_1">
  <metadata id="CorelCorpID_0Corel-Layer"/>
  <path class="fil0" d="M1024 0c565.539,0 1024,458.461 1024,1024 0,565.539 -458.461,1024 -1024,1024 -565.539,0 -1024,-458.461 -1024,-1024 0,-565.539 458.461,-1024 1024,-1024z"/>
  <g style="clip-path:url(#id0)">
   <g id="_341220136">
    <g>
     <polygon id="_4558381841" class="fil1" points="1108.22,463.999 2244.1,1599.88 2273.38,1704.5 1137.5,568.619 "/>
     <polygon id="_455838304" class="fil1" points="1209.72,602.469 2345.6,1738.35 2343.73,1738.44 2341.86,1738.55 2339.99,1738.67 2338.12,1738.79 2336.25,1738.94 2334.39,1739.09 2332.52,1739.26 2330.66,1739.44 2328.79,1739.63 2326.93,1739.83 2325.07,1740.05 2323.21,1740.28 2321.35,1740.52 2319.5,1740.77 2317.64,1741.04 2315.79,1741.32 2313.94,1741.61 2312.09,1741.91 2310.24,1742.23 2308.4,1742.56 2306.56,1742.9 2304.72,1743.25 2302.88,1743.61 2301.04,1743.99 2299.21,1744.38 2297.37,1744.78 2295.54,1745.19 2293.72,1745.62 2291.89,1746.05 2290.07,1746.5 2288.25,1746.97 2286.43,1747.44 1150.55,611.556 1152.37,611.083 1154.19,610.622 1156.01,610.172 1157.84,609.735 1159.66,609.31 1161.49,608.897 1163.32,608.496 1165.16,608.108 1166.99,607.731 1168.83,607.367 1170.68,607.015 1172.52,606.675 1174.36,606.347 1176.21,606.031 1178.06,605.729 1179.91,605.437 1181.76,605.16 1183.62,604.893 1185.47,604.639 1187.33,604.398 1189.19,604.169 1191.05,603.951 1192.91,603.747 1194.78,603.556 1196.64,603.376 1198.51,603.208 1200.37,603.055 1202.24,602.912 1204.11,602.783 1205.98,602.665 1207.85,602.561 "/>
     <polygon id="_455839120" class="fil1" points="1149.58,611.814 2285.47,1747.7 2314.77,1852.42 1178.89,716.534 "/>
     <polygon id="_455838784" class="fil1" points="994.047,587.109 2129.93,1722.99 2133.97,1727.55 2137.9,1732.2 2141.73,1736.95 2145.44,1741.78 2149.03,1746.72 2152.51,1751.73 2155.87,1756.84 2159.11,1762.03 2162.23,1767.3 2165.22,1772.66 2168.09,1778.09 2170.83,1783.6 2173.44,1789.18 2175.91,1794.84 2178.25,1800.57 2180.45,1806.36 2182.52,1812.23 2184.44,1818.15 2186.23,1824.15 2187.86,1830.2 2189.36,1836.31 2190.7,1842.47 2191.89,1848.7 2192.93,1854.97 2193.82,1861.3 2194.54,1867.67 2195.11,1874.09 2195.52,1880.56 2195.77,1887.07 2195.85,1893.61 1059.97,757.732 1059.89,751.183 1059.64,744.674 1059.23,738.208 1058.66,731.787 1057.93,725.414 1057.05,719.088 1056.01,712.814 1054.82,706.591 1053.47,700.425 1051.98,694.315 1050.35,688.263 1048.56,682.273 1046.64,676.345 1044.57,670.482 1042.37,664.686 1040.03,658.958 1037.56,653.301 1034.95,647.717 1032.21,642.207 1029.34,636.775 1026.35,631.421 1023.23,626.148 1019.99,620.958 1016.63,615.852 1013.15,610.834 1009.56,605.902 1005.85,601.063 1002.02,596.317 998.09,591.664 "/>
     <polygon id="_455839144" class="fil1" points="1413.08,676.012 2548.96,1811.89 2543.9,1807.38 2538.73,1803 2533.46,1798.73 2528.08,1794.59 2522.61,1790.58 2517.04,1786.7 2511.37,1782.95 2505.61,1779.34 2499.76,1775.86 2493.82,1772.52 2487.8,1769.32 2481.69,1766.26 2475.5,1763.35 2469.24,1760.59 2462.89,1757.97 2456.47,1755.51 2449.98,1753.19 2443.43,1751.04 2436.8,1749.04 2430.11,1747.2 2423.36,1745.52 2416.54,1744.01 2409.67,1742.66 2402.74,1741.48 2395.76,1740.47 2388.73,1739.64 2381.65,1738.97 2374.53,1738.49 2367.36,1738.18 2360.14,1738.05 2352.89,1738.11 2345.6,1738.35 1209.72,602.469 1217.01,602.228 1224.26,602.171 1231.47,602.298 1238.64,602.605 1245.77,603.091 1252.85,603.754 1259.88,604.59 1266.86,605.6 1273.79,606.78 1280.66,608.126 1287.47,609.641 1294.23,611.318 1300.92,613.157 1307.55,615.155 1314.1,617.312 1320.59,619.623 1327.01,622.088 1333.35,624.704 1339.62,627.469 1345.81,630.381 1351.92,633.437 1357.94,636.637 1363.88,639.976 1369.73,643.454 1375.49,647.07 1381.16,650.819 1386.73,654.7 1392.2,658.711 1397.58,662.849 1402.85,667.113 1408.02,671.502 "/>
     <polygon id="_455839384" class="fil1" points="1436.7,700.295 2572.58,1836.18 2568.09,1831.1 2563.48,1826.12 2558.75,1821.26 2553.91,1816.52 2548.96,1811.89 1413.08,676.012 1418.03,680.638 1422.87,685.382 1427.6,690.24 1432.21,695.213 "/>
     <polygon id="_455839192" class="fil1" points="1150.55,611.556 2286.43,1747.44 2286.31,1747.47 2286.19,1747.5 2286.07,1747.53 2285.95,1747.57 2285.83,1747.6 2285.71,1747.63 2285.59,1747.66 2285.47,1747.7 1149.58,611.814 1149.7,611.782 1149.83,611.749 1149.95,611.717 1150.07,611.685 1150.19,611.652 1150.31,611.62 1150.43,611.588 "/>
     <polygon id="_455839288" class="fil1" points="1549.63,869.709 2685.51,2005.59 2685.67,2009.59 2685.78,2013.59 2685.84,2017.58 2685.85,2021.57 2685.82,2025.55 2685.73,2029.53 2685.6,2033.5 2685.42,2037.47 2685.19,2041.43 2684.92,2045.38 2684.59,2049.33 2684.22,2053.27 2683.8,2057.2 2683.34,2061.12 2682.83,2065.04 2682.27,2068.95 2681.66,2072.84 2681.01,2076.73 2680.31,2080.61 2679.56,2084.47 2678.77,2088.33 2677.93,2092.17 2677.05,2096 2676.12,2099.82 2675.15,2103.63 2674.13,2107.42 2673.06,2111.2 2671.95,2114.97 2670.8,2118.72 2669.6,2122.45 2668.35,2126.17 2667.06,2129.88 1531.18,993.998 1532.47,990.291 1533.72,986.571 1534.92,982.834 1536.07,979.083 1537.18,975.317 1538.25,971.538 1539.27,967.744 1540.24,963.937 1541.17,960.119 1542.05,956.287 1542.89,952.444 1543.68,948.589 1544.43,944.723 1545.13,940.847 1545.78,936.961 1546.39,933.063 1546.95,929.157 1547.46,925.242 1547.92,921.318 1548.34,917.387 1548.71,913.446 1549.04,909.499 1549.31,905.545 1549.54,901.585 1549.72,897.617 1549.85,893.645 1549.94,889.666 1549.97,885.683 1549.96,881.696 1549.9,877.704 1549.79,873.708 "/>
     <polygon id="_455839696" class="fil1" points="1178.89,716.534 2314.77,1852.42 2185.34,1771.77 1049.46,635.891 "/>
     <polygon id="_455839552" class="fil1" points="1049.46,635.891 2185.34,1771.77 2168.46,1761.26 1032.58,625.376 "/>
     <polygon id="_455839792" class="fil1" points="1531.18,993.998 2667.06,2129.88 2665.72,2133.58 2664.34,2137.26 2662.92,2140.93 2661.45,2144.58 2659.93,2148.22 2658.38,2151.83 2656.77,2155.43 2655.13,2159 2653.44,2162.56 2651.71,2166.1 2649.94,2169.62 2648.12,2173.12 2646.26,2176.59 2644.36,2180.05 2642.42,2183.49 2640.43,2186.9 2638.41,2190.29 2636.33,2193.65 2634.22,2197 2632.07,2200.32 2629.88,2203.61 2627.64,2206.88 2625.36,2210.13 2623.04,2213.35 2620.68,2216.55 2618.28,2219.72 2615.84,2222.86 2613.36,2225.97 2610.84,2229.06 2608.28,2232.12 2605.68,2235.15 2603.04,2238.16 1467.15,1102.28 1469.8,1099.27 1472.4,1096.24 1474.96,1093.18 1477.48,1090.09 1479.96,1086.98 1482.4,1083.83 1484.8,1080.66 1487.16,1077.47 1489.48,1074.25 1491.76,1071 1493.99,1067.73 1496.19,1064.44 1498.34,1061.11 1500.45,1057.77 1502.52,1054.41 1504.55,1051.02 1506.54,1047.6 1508.48,1044.17 1510.38,1040.71 1512.24,1037.23 1514.06,1033.74 1515.83,1030.22 1517.56,1026.68 1519.25,1023.12 1520.89,1019.54 1522.49,1015.95 1524.05,1012.33 1525.57,1008.7 1527.04,1005.05 1528.46,1001.38 1529.84,997.698 "/>
     <polygon id="_455839624" class="fil1" points="1470.66,670.962 2606.54,1806.84 2611.6,1812.86 2616.53,1819 2621.31,1825.27 2625.94,1831.65 2630.42,1838.14 2634.74,1844.76 2638.92,1851.48 2642.93,1858.31 2646.78,1865.25 2650.47,1872.29 2653.99,1879.44 2657.34,1886.68 2660.52,1894.02 2663.53,1901.46 2666.36,1908.99 2669.01,1916.6 2671.48,1924.31 2673.76,1932.09 2675.85,1939.96 2677.76,1947.91 2679.47,1955.94 2680.98,1964.04 2682.29,1972.22 2683.41,1980.46 2684.32,1988.77 2685.02,1997.15 2685.51,2005.59 1549.63,869.709 1549.14,861.27 1548.44,852.892 1547.53,844.581 1546.41,836.337 1545.1,828.162 1543.58,820.06 1541.87,812.032 1539.97,804.082 1537.88,796.212 1535.6,788.424 1533.13,780.72 1530.48,773.103 1527.65,765.576 1524.64,758.141 1521.46,750.8 1518.11,743.555 1514.59,736.411 1510.9,729.368 1507.05,722.429 1503.03,715.596 1498.86,708.873 1494.54,702.262 1490.05,695.764 1485.42,689.383 1480.65,683.121 1475.72,676.98 "/>
     <polygon id="_455807704" class="fil1" points="1059.97,757.732 2195.85,1893.61 2195.77,1900.16 2195.52,1906.67 2195.11,1913.14 2194.54,1919.56 2193.82,1925.93 2192.93,1932.26 2191.89,1938.53 2190.7,1944.76 2189.36,1950.92 2187.86,1957.03 2186.23,1963.08 2184.44,1969.07 2182.52,1975 2180.45,1980.86 2178.25,1986.66 2175.91,1992.39 2173.44,1998.05 2170.83,2003.63 2168.09,2009.14 2165.22,2014.57 2162.23,2019.93 2159.11,2025.2 2155.87,2030.39 2152.51,2035.49 2149.03,2040.51 2145.44,2045.44 2141.73,2050.28 2137.9,2055.03 2133.97,2059.68 2129.93,2064.24 2125.78,2068.69 2121.53,2073.05 985.645,937.168 989.898,932.812 994.047,928.354 998.09,923.799 1002.02,919.148 1005.85,914.401 1009.56,909.561 1013.15,904.631 1016.63,899.612 1019.99,894.506 1023.23,889.315 1026.35,884.043 1029.34,878.689 1032.21,873.256 1034.95,867.747 1037.56,862.163 1040.03,856.507 1042.37,850.778 1044.57,844.983 1046.64,839.12 1048.56,833.192 1050.35,827.201 1051.98,821.149 1053.47,815.039 1054.82,808.873 1056.01,802.651 1057.05,796.377 1057.93,790.051 1058.66,783.677 1059.23,777.256 1059.64,770.79 1059.89,764.281 "/>
     <polygon id="_455807968" class="fil1" points="985.645,937.168 2121.53,2073.05 2117.17,2077.3 2112.71,2081.45 2108.16,2085.5 2103.5,2089.43 2098.76,2093.25 2093.92,2096.96 2088.99,2100.56 2083.97,2104.04 2078.86,2107.4 2073.67,2110.64 2068.4,2113.76 2063.05,2116.75 2057.61,2119.62 2052.1,2122.35 2046.52,2124.96 2040.86,2127.44 2035.14,2129.78 2029.34,2131.98 2023.48,2134.04 2017.55,2135.97 2011.56,2137.75 2005.51,2139.39 1999.4,2140.88 1993.23,2142.22 1987.01,2143.42 1980.73,2144.45 1974.41,2145.34 1968.03,2146.07 1961.61,2146.64 1955.15,2147.05 1948.64,2147.3 1942.09,2147.38 806.209,1011.5 812.758,1011.41 819.268,1011.17 825.733,1010.76 832.153,1010.19 838.528,1009.46 844.853,1008.57 851.128,1007.53 857.349,1006.34 863.516,1005 869.626,1003.51 875.677,1001.87 881.668,1000.09 887.596,998.162 893.459,996.098 899.255,993.894 904.983,991.554 910.639,989.078 916.223,986.472 921.733,983.734 927.165,980.867 932.519,977.874 937.792,974.756 942.982,971.516 948.088,968.155 953.107,964.677 958.038,961.08 962.877,957.369 967.624,953.546 972.276,949.613 976.831,945.57 981.289,941.421 "/>
     <polygon id="_455807656" class="fil1" points="806.209,1011.5 1942.09,2147.38 1935.54,2147.3 1929.03,2147.05 1922.57,2146.64 1916.15,2146.07 1909.77,2145.34 1903.45,2144.45 1897.17,2143.42 1890.95,2142.22 1884.78,2140.88 1878.67,2139.39 1872.62,2137.75 1866.63,2135.97 1860.7,2134.04 1854.84,2131.98 1849.04,2129.78 1843.32,2127.44 1837.66,2124.96 1832.08,2122.35 1826.57,2119.62 1821.13,2116.75 1815.78,2113.76 1810.51,2110.64 1805.32,2107.4 1800.21,2104.04 1795.19,2100.56 1790.26,2096.96 1785.42,2093.25 1780.67,2089.43 1776.02,2085.5 1771.47,2081.45 1767.01,2077.3 631.128,941.421 635.586,945.57 640.141,949.613 644.794,953.546 649.541,957.369 654.381,961.08 659.311,964.677 664.33,968.155 669.435,971.516 674.626,974.756 679.9,977.874 685.254,980.867 690.686,983.734 696.195,986.472 701.78,989.078 707.436,991.554 713.163,993.894 718.96,996.098 724.823,998.162 730.751,1000.09 736.742,1001.87 742.792,1003.51 748.902,1005 755.07,1006.34 761.291,1007.53 767.566,1008.57 773.891,1009.46 780.265,1010.19 786.686,1010.76 793.151,1011.17 799.66,1011.41 "/>
     <polygon id="_455807368" class="fil1" points="614.387,975.579 1750.27,2111.46 1747.99,2114.06 1745.74,2116.68 1743.53,2119.32 1741.35,2121.98 1739.21,2124.67 1737.1,2127.39 1735.03,2130.12 1732.99,2132.88 1730.99,2135.66 1729.02,2138.46 1727.09,2141.28 1725.2,2144.12 1723.34,2146.99 1721.51,2149.87 1719.73,2152.77 1717.98,2155.7 1716.26,2158.64 1714.59,2161.6 1712.95,2164.58 1711.34,2167.57 1709.78,2170.59 1708.25,2173.62 1706.76,2176.67 1705.3,2179.73 1703.88,2182.82 1702.5,2185.91 1701.16,2189.03 1699.86,2192.15 1698.59,2195.3 1697.36,2198.45 1696.17,2201.63 1695.02,2204.81 559.14,1068.93 560.292,1065.74 561.481,1062.57 562.709,1059.42 563.976,1056.27 565.28,1053.14 566.622,1050.03 568.002,1046.93 569.419,1043.85 570.874,1040.79 572.366,1037.74 573.896,1034.71 575.462,1031.69 577.066,1028.69 578.706,1025.72 580.382,1022.76 582.096,1019.81 583.847,1016.89 585.632,1013.99 587.456,1011.1 589.314,1008.24 591.208,1005.4 593.139,1002.58 595.106,999.776 597.107,996.996 599.144,994.24 601.217,991.504 603.325,988.791 605.468,986.102 607.646,983.435 609.858,980.793 612.106,978.174 "/>
     <polygon id="_455807920" class="fil1" points="1467.15,1102.28 2603.04,2238.16 2569.49,2208.3 1433.61,1072.42 "/>
     <polygon id="_455807728" class="fil1" points="1456.85,1121.16 2592.73,2257.05 2596.88,2261.5 2600.92,2266.06 2604.86,2270.71 2608.68,2275.46 2612.39,2280.3 2615.99,2285.23 2619.47,2290.25 2622.83,2295.35 2626.07,2300.54 2629.18,2305.82 2632.18,2311.17 2635.04,2316.6 2637.78,2322.11 2640.39,2327.7 2642.86,2333.35 2645.2,2339.08 2647.41,2344.88 2649.47,2350.74 2651.4,2356.67 2653.18,2362.66 2654.82,2368.71 2656.31,2374.82 2657.65,2380.99 2658.84,2387.21 2659.88,2393.48 2660.77,2399.81 2661.5,2406.18 2662.07,2412.6 2662.47,2419.07 2662.72,2425.58 2662.81,2432.13 1526.92,1296.25 1526.84,1289.7 1526.59,1283.19 1526.18,1276.72 1525.61,1270.3 1524.89,1263.93 1524,1257.6 1522.96,1251.33 1521.77,1245.1 1520.43,1238.94 1518.93,1232.83 1517.3,1226.78 1515.51,1220.79 1513.59,1214.86 1511.53,1209 1509.32,1203.2 1506.98,1197.47 1504.51,1191.81 1501.9,1186.23 1499.16,1180.72 1496.29,1175.29 1493.3,1169.93 1490.19,1164.66 1486.95,1159.47 1483.58,1154.37 1480.11,1149.35 1476.51,1144.42 1472.8,1139.58 1468.98,1134.83 1465.04,1130.18 1461,1125.62 "/>
     <polygon id="_455807392" class="fil1" points="1526.92,1296.25 2662.81,2432.13 2662.72,2438.68 2662.47,2445.19 2662.07,2451.65 2661.5,2458.07 2660.77,2464.45 2659.88,2470.77 2658.84,2477.05 2657.65,2483.27 2656.31,2489.43 2654.82,2495.54 2653.18,2501.6 2651.4,2507.59 2649.47,2513.52 2647.41,2519.38 2645.2,2525.17 2642.86,2530.9 2640.39,2536.56 2637.78,2542.14 2635.04,2547.65 2632.18,2553.08 2629.18,2558.44 2626.07,2563.71 2622.83,2568.9 2619.47,2574.01 2615.99,2579.03 2612.39,2583.96 2608.68,2588.8 2604.86,2593.54 2600.92,2598.2 2596.88,2602.75 2592.73,2607.21 2588.48,2611.56 1452.6,1475.68 1456.85,1471.33 1461,1466.87 1465.04,1462.31 1468.97,1457.66 1472.8,1452.91 1476.51,1448.08 1480.1,1443.14 1483.58,1438.13 1486.94,1433.02 1490.19,1427.83 1493.3,1422.56 1496.29,1417.2 1499.16,1411.77 1501.9,1406.26 1504.51,1400.68 1506.98,1395.02 1509.32,1389.29 1511.53,1383.5 1513.59,1377.63 1515.51,1371.7 1517.3,1365.71 1518.93,1359.66 1520.43,1353.55 1521.77,1347.39 1522.96,1341.16 1524,1334.89 1524.89,1328.56 1525.61,1322.19 1526.18,1315.77 1526.59,1309.3 1526.84,1302.79 "/>
     <polygon id="_455807608" class="fil1" points="1452.6,1475.68 2588.48,2611.56 2584.12,2615.82 2579.66,2619.97 2575.11,2624.01 2570.46,2627.94 2565.71,2631.77 2560.87,2635.48 2555.94,2639.07 2550.92,2642.55 2545.81,2645.91 2540.63,2649.15 2535.35,2652.27 2530,2655.26 2524.57,2658.13 2519.06,2660.87 2513.47,2663.48 2507.82,2665.95 2502.09,2668.29 2496.29,2670.49 2490.43,2672.56 2484.5,2674.48 2478.51,2676.27 2472.46,2677.9 2466.35,2679.39 2460.18,2680.74 2453.96,2681.93 2447.69,2682.97 2441.36,2683.85 2434.99,2684.58 2428.57,2685.15 2422.1,2685.56 2415.59,2685.81 2409.04,2685.89 1273.16,1550.01 1279.71,1549.93 1286.22,1549.68 1292.68,1549.27 1299.1,1548.7 1305.48,1547.97 1311.8,1547.09 1318.08,1546.05 1324.3,1544.85 1330.47,1543.51 1336.58,1542.02 1342.63,1540.38 1348.62,1538.6 1354.55,1536.68 1360.41,1534.61 1366.21,1532.41 1371.93,1530.07 1377.59,1527.59 1383.17,1524.99 1388.68,1522.25 1394.12,1519.38 1399.47,1516.39 1404.74,1513.27 1409.93,1510.03 1415.04,1506.67 1420.06,1503.19 1424.99,1499.59 1429.83,1495.88 1434.58,1492.06 1439.23,1488.13 1443.78,1484.08 1448.24,1479.94 "/>
     <polygon id="_455807944" class="fil1" points="1015.42,1422.62 2151.3,2558.51 2142.85,2576.53 1006.97,1440.65 "/>
     <polygon id="_455807440" class="fil1" points="559.14,1068.93 1695.02,2204.81 1693.9,2208.02 1692.83,2211.24 1691.79,2214.48 1690.79,2217.73 1689.82,2220.99 1688.9,2224.26 1688.02,2227.54 1687.17,2230.83 1686.37,2234.14 1685.6,2237.45 1684.88,2240.78 1684.19,2244.11 1683.55,2247.45 1682.94,2250.81 1682.38,2254.17 1681.85,2257.53 1681.36,2260.91 1680.92,2264.29 1680.52,2267.69 1680.15,2271.08 1679.83,2274.49 1679.55,2277.9 1679.31,2281.31 1679.11,2284.73 1678.96,2288.16 1678.84,2291.59 1678.77,2295.02 1678.74,2298.46 1678.75,2301.9 1678.8,2305.34 1678.89,2308.79 1679.03,2312.24 543.149,1176.36 543.012,1172.91 542.918,1169.46 542.866,1166.02 542.855,1162.58 542.887,1159.14 542.96,1155.7 543.076,1152.27 543.233,1148.85 543.43,1145.43 543.67,1142.01 543.951,1138.6 544.272,1135.2 544.636,1131.8 545.039,1128.41 545.483,1125.03 545.969,1121.65 546.494,1118.28 547.059,1114.92 547.665,1111.57 548.311,1108.23 548.997,1104.89 549.722,1101.57 550.487,1098.26 551.292,1094.95 552.136,1091.66 553.02,1088.38 553.943,1085.1 554.905,1081.84 555.905,1078.6 556.945,1075.36 558.023,1072.14 "/>
     <polygon id="_455807536" class="fil1" points="543.149,1176.36 1679.03,2312.24 1679.46,2319.51 1680.06,2326.73 1680.85,2333.9 1681.81,2341 1682.94,2348.05 1684.25,2355.03 1685.72,2361.95 1687.36,2368.8 1689.17,2375.58 1691.14,2382.3 1693.27,2388.94 1695.55,2395.51 1698,2401.99 1700.59,2408.41 1703.34,2414.73 1706.23,2420.98 1709.27,2427.14 1712.45,2433.21 1715.77,2439.2 1719.24,2445.09 1722.84,2450.89 1726.57,2456.59 1730.44,2462.19 1734.43,2467.7 1738.56,2473.1 1742.81,2478.4 1747.18,2483.59 1751.67,2488.67 1756.28,2493.64 1761.01,2498.5 1765.85,2503.24 1770.8,2507.87 634.917,1371.99 629.966,1367.36 625.127,1362.62 620.4,1357.76 615.791,1352.79 611.298,1347.7 606.926,1342.52 602.678,1337.22 598.554,1331.82 594.558,1326.31 590.691,1320.71 586.956,1315 583.356,1309.21 579.893,1303.32 576.569,1297.33 573.385,1291.26 570.347,1285.1 567.454,1278.85 564.709,1272.52 562.114,1266.11 559.673,1259.62 557.386,1253.06 555.258,1246.42 553.289,1239.7 551.483,1232.92 549.841,1226.07 548.366,1219.15 547.06,1212.16 545.926,1205.12 544.965,1198.01 544.18,1190.85 543.574,1183.63 "/>
     <polygon id="_455808208" class="fil1" points="910.503,1479.38 2046.38,2615.26 2046.18,2615.32 2045.97,2615.37 2045.77,2615.43 2045.56,2615.48 2045.36,2615.54 2045.15,2615.59 2044.95,2615.65 2044.74,2615.7 908.861,1479.82 909.067,1479.77 909.272,1479.71 909.478,1479.66 909.682,1479.6 909.888,1479.55 910.093,1479.49 910.298,1479.44 "/>
     <polygon id="_455808472" class="fil1" points="634.917,1371.99 1770.8,2507.87 1775.86,2512.38 639.98,1376.5 "/>
     <polygon id="_455808712" class="fil1" points="1273.16,1550.01 2409.04,2685.89 2402.49,2685.81 2395.98,2685.56 2389.52,2685.15 2383.1,2684.58 2376.72,2683.85 2370.4,2682.97 2364.12,2681.93 2357.9,2680.74 2351.73,2679.39 2345.63,2677.9 2339.57,2676.27 2333.58,2674.48 2327.66,2672.56 2321.79,2670.49 2316,2668.29 2310.27,2665.95 2304.61,2663.48 2299.03,2660.87 2293.52,2658.13 2288.09,2655.26 2282.73,2652.27 2277.46,2649.15 2272.27,2645.91 2267.16,2642.55 2262.14,2639.07 2257.21,2635.48 2252.37,2631.77 2247.63,2627.94 2242.97,2624.01 2238.42,2619.97 1102.54,1484.08 1107.09,1488.13 1111.75,1492.06 1116.49,1495.88 1121.33,1499.59 1126.26,1503.19 1131.28,1506.67 1136.39,1510.03 1141.58,1513.27 1146.85,1516.39 1152.21,1519.38 1157.64,1522.25 1163.15,1524.99 1168.73,1527.59 1174.39,1530.07 1180.11,1532.41 1185.91,1534.61 1191.77,1536.68 1197.7,1538.6 1203.69,1540.38 1209.74,1542.02 1215.85,1543.51 1222.02,1544.85 1228.24,1546.05 1234.52,1547.09 1240.84,1547.97 1247.22,1548.7 1253.64,1549.27 1260.1,1549.68 1266.61,1549.93 "/>
     <polygon id="_455808496" class="fil1" points="908.861,1479.82 2044.74,2615.7 2042.65,2616.25 2040.55,2616.78 2038.45,2617.3 2036.34,2617.8 2034.23,2618.29 2032.12,2618.77 2030,2619.23 2027.88,2619.68 2025.76,2620.11 2023.63,2620.53 2021.5,2620.94 2019.37,2621.33 2017.23,2621.71 2015.09,2622.07 2012.94,2622.42 2010.8,2622.76 2008.65,2623.08 2006.49,2623.39 2004.34,2623.68 2002.18,2623.96 2000.02,2624.22 1997.86,2624.48 1995.69,2624.71 1993.52,2624.93 1991.35,2625.14 1989.18,2625.34 1987,2625.51 1984.82,2625.68 1982.64,2625.83 1980.46,2625.97 1978.27,2626.09 1976.09,2626.19 840.207,1490.31 842.394,1490.21 844.577,1490.08 846.76,1489.95 848.94,1489.8 851.118,1489.63 853.294,1489.45 855.467,1489.26 857.639,1489.05 859.808,1488.83 861.974,1488.59 864.138,1488.34 866.299,1488.08 868.457,1487.8 870.612,1487.51 872.766,1487.2 874.915,1486.88 877.062,1486.54 879.206,1486.19 881.348,1485.83 883.485,1485.45 885.62,1485.06 887.75,1484.65 889.877,1484.23 892.002,1483.8 894.122,1483.35 896.239,1482.88 898.353,1482.41 900.463,1481.92 902.568,1481.42 904.67,1480.9 906.767,1480.37 "/>
     <polygon id="_455808232" class="fil1" points="1006.97,1440.65 2142.85,2576.53 2075.66,2719.88 939.779,1584 "/>
     <polygon id="_455808616" class="fil1" points="840.207,1490.31 1976.09,2626.19 1967.65,2626.47 1959.25,2626.54 1950.9,2626.39 1942.59,2626.04 1934.34,2625.48 1926.14,2624.71 1917.99,2623.74 1909.91,2622.57 1901.89,2621.21 1893.93,2619.65 1886.04,2617.89 1878.22,2615.95 1870.47,2613.82 1862.79,2611.51 1855.2,2609.01 1847.68,2606.34 1840.25,2603.49 1832.91,2600.46 1825.65,2597.26 1818.48,2593.89 1811.41,2590.35 1804.44,2586.64 1797.56,2582.78 1790.79,2578.75 1784.12,2574.57 1777.56,2570.23 1771.11,2565.73 1764.77,2561.09 1758.54,2556.3 1752.44,2551.36 1746.45,2546.28 610.574,1410.4 616.558,1415.48 622.662,1420.42 628.886,1425.21 635.225,1429.85 641.676,1434.34 648.238,1438.68 654.906,1442.87 661.68,1446.9 668.555,1450.76 675.531,1454.46 682.602,1458 689.768,1461.37 697.026,1464.58 704.371,1467.6 711.803,1470.46 719.318,1473.13 726.914,1475.63 734.586,1477.94 742.335,1480.07 750.156,1482.01 758.047,1483.76 766.006,1485.32 774.028,1486.69 782.112,1487.86 790.256,1488.83 798.455,1489.59 806.709,1490.16 815.014,1490.51 823.367,1490.66 831.766,1490.59 "/>
    </g>
    <path id="_341220160" class="fil1" d="M1443.29 642.82c61.8709,56.4532 102.209,136.545 106.345,226.889 1.95236,42.6721 -4.45985,84.8446 -18.4512,124.289 -14.0315,39.5575 -35.6386,76.3961 -64.0264,108.278l-33.5422 -29.8547c24.5244,-27.5421 43.1693,-59.3008 55.2473,-93.3497 12.1181,-34.1658 17.6764,-70.6193 15.991,-107.431 -3.56457,-77.8489 -38.3729,-146.909 -91.7682,-195.628 -53.4213,-48.7441 -125.431,-77.1107 -203.359,-73.5426 -19.9725,0.914174 -39.8079,3.97323 -59.1709,9.08741 -0.323622,0.0850394 -0.646063,0.17126 -0.968505,0.257481l29.3032 104.72 -129.429 -80.6434 -16.8756 -10.5142 8.44607 -18.0225 67.1918 -143.355 29.276 104.62c0.546851,-0.147638 1.0937,-0.294095 1.64173,-0.438189 22.3122,-5.89371 45.3248,-9.4252 68.654,-10.4929 90.2646,-4.13268 173.649,28.7044 235.494,85.1327zm9.31064 473.989c45.9213,45.9225 74.3268,109.365 74.3268,179.437 0,70.0713 -28.4055,133.514 -74.328,179.437 -45.9225,45.9225 -109.365,74.328 -179.436,74.328 -70.0701,0 -133.513,-28.4055 -179.437,-74.328 -45.9225,-45.9225 -74.328,-109.365 -74.328,-179.437 0,-70.0713 28.4044,-133.513 74.328,-179.436 45.9237,-45.9237 109.364,-74.3292 179.437,-74.3292 70.0725,0 133.513,28.4055 179.437,74.328zm-646.388 -612.841c70.0713,0 133.513,28.4055 179.436,74.328 45.9225,45.9225 74.328,109.365 74.328,179.437 0,70.0713 -28.4055,133.514 -74.328,179.436 -45.9225,45.9237 -109.365,74.3292 -179.436,74.3292 -70.0701,0 -133.513,-28.4055 -179.437,-74.3292 -45.9225,-45.9213 -74.328,-109.364 -74.328,-179.436 0,-70.0713 28.4044,-133.513 74.328,-179.436 45.9225,-45.9237 109.364,-74.3292 179.437,-74.3292zm62.9032 827.499l129.429 80.6434 16.8756 10.5142 -8.44607 18.0225 -67.1918 143.355 -29.276 -104.62c-0.546851,0.147638 -1.0937,0.294095 -1.64173,0.438189 -22.3122,5.89371 -45.3248,9.4252 -68.654,10.4929 -90.2646,4.13268 -173.649,-28.7044 -235.494,-85.1327 -61.8709,-56.4532 -102.209,-136.545 -106.345,-226.889 -1.95236,-42.6721 4.45985,-84.8446 18.4512,-124.289 14.0315,-39.5575 35.6386,-76.3961 64.0264,-108.278l33.5422 29.8547c-24.5244,27.5421 -43.1693,59.3008 -55.2473,93.3497 -12.1181,34.1658 -17.6764,70.6193 -15.991,107.431 3.56457,77.8489 38.3729,146.909 91.7682,195.628 53.4213,48.7441 125.431,77.1107 203.359,73.5426 19.9725,-0.914174 39.8079,-3.97323 59.1709,-9.08741 0.322441,-0.0850394 0.646063,-0.17126 0.968505,-0.257481l-29.3032 -104.72z"/>
   </g>
  </g>
  <path class="fil2" d="M1024 0c565.539,0 1024,458.461 1024,1024 0,565.539 -458.461,1024 -1024,1024 -565.539,0 -1024,-458.461 -1024,-1024 0,-565.539 458.461,-1024 1024,-1024z"/>
  <path class="fil3" d="M806.209 503.967c70.0713,0 133.513,28.4055 179.436,74.328 45.9225,45.9225 74.328,109.365 74.328,179.437 0,70.0713 -28.4055,133.514 -74.328,179.436 -45.9225,45.9237 -109.365,74.3292 -179.436,74.3292 -70.0701,0 -133.513,-28.4055 -179.437,-74.3292 -45.9225,-45.9213 -74.328,-109.364 -74.328,-179.436 0,-70.0713 28.4044,-133.513 74.328,-179.436 45.9225,-45.9237 109.364,-74.3292 179.437,-74.3292z"/>
  <path class="fil4" d="M806.209 551.406c27.8729,0 54.5115,5.56654 78.8599,15.652 25.3217,10.4882 48.0555,25.8059 67.0312,44.7815 18.9744,18.9744 34.2922,41.7083 44.7815,67.03 10.0854,24.3496 15.652,50.9894 15.652,78.8623 0,27.8729 -5.56654,54.5126 -15.652,78.8611 -10.4894,25.3217 -25.8071,48.0555 -44.7815,67.0312 -18.9756,18.9744 -41.7095,34.2922 -67.0312,44.7803 -24.3473,10.0866 -50.987,15.6532 -78.8599,15.6532 -27.8729,0 -54.5126,-5.56654 -78.8611,-15.6532 -25.3217,-10.4882 -48.0555,-25.8059 -67.0312,-44.7803 -18.9744,-18.9756 -34.2922,-41.7095 -44.7815,-67.0312 -10.0854,-24.3484 -15.652,-50.9882 -15.652,-78.8611 0,-27.874 5.56654,-54.5126 15.652,-78.8623 10.4894,-25.3205 25.8059,-48.0544 44.7815,-67.03 18.9744,-18.9756 41.7095,-34.2933 67.03,-44.7803 24.3496,-10.0866 50.9882,-15.6532 78.8623,-15.6532zm70.343 36.3733c-21.6142,-8.95276 -45.3721,-13.8945 -70.343,-13.8945 -24.9721,0 -48.73,4.94174 -70.3453,13.8957 -22.4221,9.28702 -42.6567,22.9547 -59.654,39.952 -16.9984,16.9973 -30.665,37.2319 -39.9532,59.6552 -8.95276,21.6154 -13.8957,45.3709 -13.8957,70.3441 0,24.9721 4.94292,48.7276 13.8957,70.3441 9.2882,22.4221 22.9559,42.6579 39.9532,59.6552 16.9973,16.9961 37.2331,30.6638 59.6552,39.952 21.6154,8.95394 45.3721,13.8957 70.3441,13.8957 24.9709,0 48.7288,-4.94174 70.343,-13.8957 22.4232,-9.2882 42.6579,-22.9559 59.6552,-39.952 16.9973,-16.9973 30.665,-37.2331 39.952,-59.6552 8.95394,-21.6166 13.8969,-45.3721 13.8969,-70.3441 0,-24.9721 -4.94292,-48.7288 -13.8969,-70.3441 -9.28702,-22.4232 -22.9547,-42.6591 -39.952,-59.6552 -16.9973,-16.9973 -37.2331,-30.6662 -59.6552,-39.9532z"/>
  <path class="fil5" d="M817.881 833.513c7.81772,-1.43622 14.1473,-5.05158 19.0394,-10.7953 4.89213,-5.79685 7.33819,-12.5516 7.33819,-20.3681 0,-6.96615 -2.07402,-12.9225 -6.1689,-17.9752 -4.09489,-5.05158 -10.8484,-8.93387 -20.2087,-11.5925l0 60.7311zm-22.5473 -165.762c-6.1689,2.07402 -11.0079,5.63741 -14.6776,10.5839 -3.61654,4.99843 -5.42481,10.5284 -5.42481,16.5378 0,5.47796 1.64882,10.6358 4.94528,15.3165 3.35079,4.73268 8.40355,8.56182 15.1571,11.4862l0 -53.9245zm0 163.582l0 -65.2524c-20.3681,-5.85 -35.3114,-14.6244 -44.83,-26.4295 -9.46654,-11.8063 -14.2536,-26.1118 -14.2536,-42.9166 0,-17.0173 5.37166,-31.3229 16.1138,-42.9154 10.7953,-11.5937 25.1008,-18.241 42.9697,-20.0492l0 -15.4217 22.5473 0 0 15.4217c16.539,2.02087 29.674,7.60512 39.4607,16.911 9.73111,9.30591 15.9532,21.7512 18.6662,37.3323l-39.4075 5.15788c-2.39173,-12.2847 -8.61497,-20.5795 -18.7193,-24.9402l0 60.8894c24.9425,6.75473 41.9587,15.5291 50.9469,26.2713 9.04016,10.7421 13.5602,24.5162 13.5602,41.374 0,18.7725 -5.68937,34.6205 -17.0173,47.4898 -11.3811,12.9225 -27.228,20.7933 -47.4898,23.7177l0 29.1437 -22.5473 0 0 -28.3984c-17.9752,-2.18032 -32.5996,-8.8819 -43.8213,-20.1024 -11.2205,-11.1685 -18.3461,-27.0154 -21.4843,-47.4886l40.6831 -4.36181c1.64764,8.29607 4.78583,15.4748 9.36024,21.4854 4.5189,6.00945 9.62481,10.3701 15.2622,13.0819z"/>
  <path class="fil6" d="M1074.25 592.897c20.6386,-10.5024 42.3969,-18.776 64.8875,-24.7169 22.3122,-5.89371 45.3248,-9.4252 68.654,-10.4929 90.2646,-4.13268 173.649,28.7044 235.494,85.1327 61.8709,56.4532 102.209,136.545 106.345,226.889 1.95236,42.6721 -4.45985,84.8446 -18.4512,124.289 -14.0315,39.5575 -35.6386,76.3961 -64.0264,108.278l-33.5422 -29.8547c24.5244,-27.5421 43.1693,-59.3008 55.2473,-93.3497 12.1181,-34.1658 17.6764,-70.6193 15.991,-107.431 -3.56457,-77.8489 -38.3729,-146.909 -91.7682,-195.628 -53.4213,-48.7441 -125.431,-77.1107 -203.359,-73.5426 -19.9725,0.914174 -39.8079,3.97323 -59.1709,9.08741 -19.1823,5.06693 -37.937,12.2232 -55.93,21.3803l-20.3717 -40.0394z"/>
  <polygon class="fil6" points="1178.89,716.534 1049.46,635.891 1032.58,625.376 1041.03,607.354 1108.22,463.999 "/>
  <path class="fil6" d="M973.749 1455.1c-20.6386,10.5024 -42.3969,18.776 -64.8875,24.7169 -22.3122,5.89371 -45.3248,9.4252 -68.654,10.4929 -90.2646,4.13268 -173.649,-28.7044 -235.494,-85.1327 -61.8709,-56.4532 -102.209,-136.545 -106.345,-226.889 -1.95236,-42.6721 4.45985,-84.8446 18.4512,-124.289 14.0315,-39.5575 35.6386,-76.3961 64.0264,-108.278l33.5422 29.8547c-24.5244,27.5421 -43.1693,59.3008 -55.2473,93.3497 -12.1181,34.1658 -17.6764,70.6193 -15.991,107.431 3.56457,77.8489 38.3729,146.909 91.7682,195.628 53.4213,48.7441 125.431,77.1107 203.359,73.5426 19.9725,-0.914174 39.8079,-3.97323 59.1709,-9.08741 19.1823,-5.06693 37.937,-12.2232 55.93,-21.3803l20.3717 40.0394z"/>
  <polygon class="fil6" points="869.112,1331.47 998.541,1412.11 1015.42,1422.62 1006.97,1440.65 939.779,1584 "/>
  <path class="fil3" d="M1273.16 1042.48c70.0725,0 133.513,28.4055 179.437,74.328 45.9213,45.9225 74.3268,109.365 74.3268,179.437 0,70.0713 -28.4055,133.514 -74.328,179.437 -45.9225,45.9225 -109.365,74.328 -179.436,74.328 -70.0701,0 -133.513,-28.4055 -179.437,-74.328 -45.9225,-45.9225 -74.328,-109.365 -74.328,-179.437 0,-70.0713 28.4044,-133.513 74.328,-179.436 45.9237,-45.9237 109.364,-74.3292 179.437,-74.3292z"/>
  <path class="fil4" d="M1273.16 1089.92c27.8729,0 54.5115,5.56654 78.8611,15.652 25.3205,10.4882 48.0544,25.8059 67.03,44.7815 18.9744,18.9744 34.2922,41.7083 44.7815,67.03 10.0854,24.3496 15.6532,50.9894 15.6532,78.8623 0,27.8729 -5.56772,54.5126 -15.6532,78.8611 -10.4894,25.3217 -25.8071,48.0555 -44.7815,67.0312 -18.9744,18.9744 -41.7083,34.2922 -67.03,44.7803 -24.3484,10.0866 -50.9882,15.6532 -78.8611,15.6532 -27.8729,0 -54.5126,-5.56654 -78.8611,-15.6532 -25.3217,-10.4882 -48.0555,-25.8059 -67.0312,-44.7803 -18.9744,-18.9756 -34.2922,-41.7095 -44.7803,-67.0312 -10.0866,-24.3484 -15.6532,-50.9882 -15.6532,-78.8611 0,-27.874 5.56654,-54.5126 15.6532,-78.8623 10.4882,-25.3205 25.8047,-48.0544 44.7803,-67.0288 18.9756,-18.9768 41.7095,-34.2945 67.03,-44.7815 24.3496,-10.0866 50.9882,-15.6532 78.8623,-15.6532zm70.343 36.3733c-21.6142,-8.95276 -45.3709,-13.8945 -70.343,-13.8945 -24.9721,0 -48.73,4.94174 -70.3453,13.8957 -22.4221,9.28702 -42.6567,22.9547 -59.654,39.952 -16.9973,16.9973 -30.665,37.2319 -39.952,59.6552 -8.95394,21.6154 -13.8969,45.3709 -13.8969,70.3441 0,24.9721 4.94292,48.7288 13.8969,70.3441 9.28702,22.4232 22.9547,42.6579 39.952,59.6552 16.9984,16.9973 37.2331,30.6638 59.6563,39.952 21.6142,8.95394 45.3709,13.8957 70.343,13.8957 24.9721,0 48.7288,-4.94174 70.343,-13.8957 22.4232,-9.2882 42.6579,-22.9547 59.6552,-39.952 16.9973,-16.9973 30.665,-37.2319 39.9532,-59.6552 8.95276,-21.6154 13.8957,-45.3721 13.8957,-70.3441 0,-24.9721 -4.94292,-48.7288 -13.8957,-70.3441 -9.2882,-22.4232 -22.9559,-42.6591 -39.9532,-59.6552 -16.9973,-16.9973 -37.2331,-30.6662 -59.6552,-39.9532z"/>
  <path class="fil5" d="M1123.11 1279.13l58.8473 0c1.24725,-11.8595 3.49134,-22.5709 6.77008,-32.1532 5.27599,-15.5728 12.5599,-28.3843 21.854,-38.3481 9.21142,-9.96379 20.0953,-17.4165 32.5701,-22.1882 12.561,-4.85552 26.0421,-7.28386 40.6099,-7.28386 7.03347,0 13.9004,0.668504 20.5134,2.00906 6.61418,1.25551 12.7276,3.01418 18.254,5.10709 5.52638,2.09291 10.5496,4.60512 14.8205,7.36772 4.35237,2.76496 7.53544,5.10827 9.46064,7.11851 2.00906,1.9252 3.34961,3.51496 4.01929,4.6878 0.753544,1.08898 1.42205,2.42835 1.84134,4.01929 0.50315,1.59213 0.837402,3.26457 1.00512,5.27481 0.167717,1.92638 0.251575,4.43859 0.251575,7.36772 0,6.36497 -0.753544,10.8024 -2.17677,13.3146 -1.50827,2.59488 -3.26575,3.8504 -5.4437,3.8504 -2.42717,0 -5.27481,-1.33819 -8.45552,-4.01811 -3.18189,-2.7626 -7.20001,-5.6941 -12.1406,-8.95985 -4.8567,-3.26575 -10.8024,-6.27874 -17.752,-8.95867 -6.94961,-2.76378 -15.1536,-4.10315 -24.6992,-4.10315 -19.4256,0 -34.3299,7.53662 -44.7118,22.4398 -7.56497,10.9193 -12.3721,25.3949 -14.4248,43.4563l98.0776 0 0 35.5607 -98.7639 0c0.6,8.61851 1.78583,16.4693 3.5563,23.5512 2.67992,10.7185 6.69922,19.6784 11.8902,26.8772 5.27481,7.20119 11.6374,12.5599 19.2579,16.0772 7.6193,3.51614 16.3276,5.27481 26.1236,5.27481 9.2941,0 17.4992,-1.50827 24.5315,-4.4374 7.03347,-2.93032 13.1457,-6.19607 18.254,-9.71339 5.19095,-3.51614 9.54568,-6.69804 13.0618,-9.5445 3.51614,-2.84646 6.19489,-4.27087 8.20512,-4.27087 1.0878,0 2.0941,0.335433 2.93032,0.921261 0.837402,0.669686 1.50709,1.75866 2.0941,3.34961 0.585827,1.59095 0.921261,3.51614 1.17165,5.86063 0.250394,2.42717 0.418111,5.19213 0.418111,8.45788 0,2.84646 -0.0838583,5.19095 -0.250394,7.28386 -0.167717,2.00906 -0.50315,3.76772 -0.837402,5.10591 -0.418111,1.42559 -0.921261,2.6811 -1.50827,3.68504 -0.584646,1.08898 -1.84016,2.67992 -3.93425,4.68898 -2.00906,2.00906 -5.52638,4.60512 -10.3831,7.6193 -4.93937,3.01536 -10.4658,5.6941 -16.578,8.03859 -6.11221,2.42835 -12.8102,4.35473 -20.0114,5.77678 -7.20119,1.50709 -14.6528,2.26063 -22.3559,2.26063 -15.8244,0 -29.8902,-2.67874 -42.1158,-7.87087 -12.3083,-5.27481 -22.5225,-12.8953 -30.8126,-22.9417 -8.2878,-10.0476 -14.5689,-22.4398 -18.9225,-37.0087 -3.38386,-11.6079 -5.45315,-24.6355 -6.16536,-39.0414l-57.9461 0 0 -35.5607z"/>
 </g>
</svg>
